<svg xmlns="http://www.w3.org/2000/svg" xmlns:xlink="http://www.w3.org/1999/xlink" width="1080" zoomAndPan="magnify" viewBox="0 0 810 809.999993" height="1080" preserveAspectRatio="xMidYMid meet" version="1.0"><defs><g/><clipPath id="5fe0cf60b6"><path d="M 12.558594 18.203125 L 532.144531 18.203125 L 532.144531 537.789062 L 12.558594 537.789062 Z M 12.558594 18.203125 " clip-rule="nonzero"/></clipPath><clipPath id="a250ebb209"><path d="M 50.808594 18.203125 L 493.894531 18.203125 C 515.019531 18.203125 532.144531 35.328125 532.144531 56.453125 L 532.144531 499.539062 C 532.144531 520.664062 515.019531 537.789062 493.894531 537.789062 L 50.808594 537.789062 C 29.683594 537.789062 12.558594 520.664062 12.558594 499.539062 L 12.558594 56.453125 C 12.558594 35.328125 29.683594 18.203125 50.808594 18.203125 Z M 50.808594 18.203125 " clip-rule="nonzero"/></clipPath><clipPath id="6647734210"><path d="M 272.351562 277.996094 L 791.9375 277.996094 L 791.9375 797.582031 L 272.351562 797.582031 Z M 272.351562 277.996094 " clip-rule="nonzero"/></clipPath><clipPath id="f97b1f0c78"><path d="M 310.601562 277.996094 L 753.6875 277.996094 C 774.8125 277.996094 791.9375 295.121094 791.9375 316.246094 L 791.9375 759.332031 C 791.9375 780.457031 774.8125 797.582031 753.6875 797.582031 L 310.601562 797.582031 C 289.476562 797.582031 272.351562 780.457031 272.351562 759.332031 L 272.351562 316.246094 C 272.351562 295.121094 289.476562 277.996094 310.601562 277.996094 Z M 310.601562 277.996094 " clip-rule="nonzero"/></clipPath><clipPath id="09c73c379a"><path d="M 272.351562 277.996094 L 792 277.996094 L 792 797.746094 L 272.351562 797.746094 Z M 272.351562 277.996094 " clip-rule="nonzero"/></clipPath><clipPath id="e016c1454a"><path d="M 310.601562 277.996094 L 753.675781 277.996094 C 774.800781 277.996094 791.925781 295.121094 791.925781 316.246094 L 791.925781 759.320312 C 791.925781 780.445312 774.800781 797.570312 753.675781 797.570312 L 310.601562 797.570312 C 289.476562 797.570312 272.351562 780.445312 272.351562 759.320312 L 272.351562 316.246094 C 272.351562 295.121094 289.476562 277.996094 310.601562 277.996094 Z M 310.601562 277.996094 " clip-rule="nonzero"/></clipPath><clipPath id="8a74d5b84a"><path d="M 52 63 L 241 63 L 241 261 L 52 261 Z M 52 63 " clip-rule="nonzero"/></clipPath><clipPath id="85b6609c7a"><path d="M 129.644531 13.609375 L 302.316406 197.152344 L 172.851562 318.945312 L 0.179688 135.402344 Z M 129.644531 13.609375 " clip-rule="nonzero"/></clipPath><clipPath id="bdbf47ca49"><path d="M 129.644531 13.609375 L 302.316406 197.152344 L 172.851562 318.945312 L 0.179688 135.402344 Z M 129.644531 13.609375 " clip-rule="nonzero"/></clipPath></defs><g clip-path="url(#5fe0cf60b6)"><g clip-path="url(#a250ebb209)"><path fill="#baf5ff" d="M 12.558594 18.203125 L 532.144531 18.203125 L 532.144531 537.789062 L 12.558594 537.789062 Z M 12.558594 18.203125 " fill-opacity="1" fill-rule="nonzero"/></g></g><g clip-path="url(#6647734210)"><g clip-path="url(#f97b1f0c78)"><path fill="#5ce1e6" d="M 272.351562 277.996094 L 791.9375 277.996094 L 791.9375 797.582031 L 272.351562 797.582031 Z M 272.351562 277.996094 " fill-opacity="1" fill-rule="nonzero"/></g></g><g clip-path="url(#09c73c379a)"><g clip-path="url(#e016c1454a)"><path stroke-linecap="butt" transform="matrix(0.75, 0, 0, 0.75, 272.351913, 277.99653)" fill="none" stroke-linejoin="miter" d="M 50.999538 -0.000581686 L 641.765231 -0.000581686 C 669.931901 -0.000581686 692.765237 22.832754 692.765237 50.999424 L 692.765237 641.765117 C 692.765237 669.931787 669.931901 692.765123 641.765231 692.765123 L 50.999538 692.765123 C 22.832869 692.765123 -0.000467331 669.931787 -0.000467331 641.765117 L -0.000467331 50.999424 C -0.000467331 22.832754 22.832869 -0.000581686 50.999538 -0.000581686 Z M 50.999538 -0.000581686 " stroke="#ffffff" stroke-width="42" stroke-opacity="1" stroke-miterlimit="4"/></g></g><g clip-path="url(#8a74d5b84a)"><g clip-path="url(#85b6609c7a)"><g clip-path="url(#bdbf47ca49)"><path fill="#5ce1e6" d="M 114.898438 247.59375 L 226.585938 260.066406 C 234.082031 260.875 240.636719 254.710938 240.089844 247.363281 L 234.449219 135.125 C 233.996094 124.695312 221.417969 119.683594 213.871094 126.78125 L 178.324219 160.222656 L 90.703125 67.085938 C 86.035156 62.121094 78.324219 61.886719 73.359375 66.554688 L 56.480469 82.4375 C 51.515625 87.105469 51.28125 94.816406 55.953125 99.78125 L 143.570312 192.917969 L 108.023438 226.359375 C 100.28125 233.644531 104.515625 246.503906 114.898438 247.59375 Z M 114.898438 247.59375 " fill-opacity="1" fill-rule="nonzero"/></g></g></g><g fill="#ffffff" fill-opacity="1"><g transform="translate(372.621724, 689.688283)"><g><path d="M 45.625 -255.96875 C 41.238281 -250.550781 35.113281 -246.164062 27.25 -242.8125 C 19.394531 -239.46875 11.859375 -237.796875 4.640625 -237.796875 L 4.640625 -290.765625 C 15.984375 -292.566406 27.257812 -297.078125 38.46875 -304.296875 C 49.6875 -311.515625 57.742188 -320.925781 62.640625 -332.53125 L 116 -332.53125 L 116 0 L 45.625 0 Z M 45.625 -255.96875 "/></g></g></g><g fill="#ffffff" fill-opacity="1"><g transform="translate(500.603593, 689.688283)"><g><path d="M 95.5 3.09375 C 67.40625 3.09375 45.753906 -4.832031 30.546875 -20.6875 C 15.335938 -36.539062 7.734375 -59.160156 7.734375 -88.546875 L 7.734375 -238.5625 C 7.734375 -270.007812 15.078125 -293.984375 29.765625 -310.484375 C 44.460938 -326.984375 66.375 -335.234375 95.5 -335.234375 C 124.882812 -335.234375 146.921875 -326.984375 161.609375 -310.484375 C 176.304688 -293.984375 183.65625 -270.007812 183.65625 -238.5625 L 183.65625 -88.546875 C 183.65625 -58.898438 176.050781 -36.210938 160.84375 -20.484375 C 145.632812 -4.765625 123.851562 3.09375 95.5 3.09375 Z M 95.5 -58 C 100.394531 -58 104.390625 -60.253906 107.484375 -64.765625 C 110.578125 -69.273438 112.125 -74.625 112.125 -80.8125 L 112.125 -244.75 C 112.125 -254.289062 111.03125 -261.570312 108.84375 -266.59375 C 106.65625 -271.625 102.207031 -274.140625 95.5 -274.140625 C 88.800781 -274.140625 84.421875 -271.625 82.359375 -266.59375 C 80.296875 -261.570312 79.265625 -254.289062 79.265625 -244.75 L 79.265625 -80.8125 C 79.265625 -74.625 80.742188 -69.273438 83.703125 -64.765625 C 86.671875 -60.253906 90.601562 -58 95.5 -58 Z M 95.5 -58 "/></g></g></g></svg>