<svg xmlns="http://www.w3.org/2000/svg" xmlns:xlink="http://www.w3.org/1999/xlink" width="1080" zoomAndPan="magnify" viewBox="0 0 810 809.999993" height="1080" preserveAspectRatio="xMidYMid meet" version="1.0"><defs><g/><clipPath id="653792b7b7"><path d="M 12.558594 18.203125 L 532.144531 18.203125 L 532.144531 537.789062 L 12.558594 537.789062 Z M 12.558594 18.203125 " clip-rule="nonzero"/></clipPath><clipPath id="6d6d97ceaa"><path d="M 50.808594 18.203125 L 493.894531 18.203125 C 515.019531 18.203125 532.144531 35.328125 532.144531 56.453125 L 532.144531 499.539062 C 532.144531 520.664062 515.019531 537.789062 493.894531 537.789062 L 50.808594 537.789062 C 29.683594 537.789062 12.558594 520.664062 12.558594 499.539062 L 12.558594 56.453125 C 12.558594 35.328125 29.683594 18.203125 50.808594 18.203125 Z M 50.808594 18.203125 " clip-rule="nonzero"/></clipPath><clipPath id="30ab3d688a"><path d="M 272.351562 277.996094 L 791.9375 277.996094 L 791.9375 797.582031 L 272.351562 797.582031 Z M 272.351562 277.996094 " clip-rule="nonzero"/></clipPath><clipPath id="13ab3de7c4"><path d="M 310.601562 277.996094 L 753.6875 277.996094 C 774.8125 277.996094 791.9375 295.121094 791.9375 316.246094 L 791.9375 759.332031 C 791.9375 780.457031 774.8125 797.582031 753.6875 797.582031 L 310.601562 797.582031 C 289.476562 797.582031 272.351562 780.457031 272.351562 759.332031 L 272.351562 316.246094 C 272.351562 295.121094 289.476562 277.996094 310.601562 277.996094 Z M 310.601562 277.996094 " clip-rule="nonzero"/></clipPath><clipPath id="8553588523"><path d="M 272.351562 277.996094 L 792 277.996094 L 792 797.746094 L 272.351562 797.746094 Z M 272.351562 277.996094 " clip-rule="nonzero"/></clipPath><clipPath id="5f92bd6c18"><path d="M 310.601562 277.996094 L 753.675781 277.996094 C 774.800781 277.996094 791.925781 295.121094 791.925781 316.246094 L 791.925781 759.320312 C 791.925781 780.445312 774.800781 797.570312 753.675781 797.570312 L 310.601562 797.570312 C 289.476562 797.570312 272.351562 780.445312 272.351562 759.320312 L 272.351562 316.246094 C 272.351562 295.121094 289.476562 277.996094 310.601562 277.996094 Z M 310.601562 277.996094 " clip-rule="nonzero"/></clipPath><clipPath id="1beeca8b8d"><path d="M 52 63 L 241 63 L 241 261 L 52 261 Z M 52 63 " clip-rule="nonzero"/></clipPath><clipPath id="91fb21fc67"><path d="M 129.644531 13.609375 L 302.316406 197.152344 L 172.851562 318.945312 L 0.179688 135.402344 Z M 129.644531 13.609375 " clip-rule="nonzero"/></clipPath><clipPath id="8c5abdacd7"><path d="M 129.644531 13.609375 L 302.316406 197.152344 L 172.851562 318.945312 L 0.179688 135.402344 Z M 129.644531 13.609375 " clip-rule="nonzero"/></clipPath></defs><g clip-path="url(#653792b7b7)"><g clip-path="url(#6d6d97ceaa)"><path fill="#fff5c0" d="M 12.558594 18.203125 L 532.144531 18.203125 L 532.144531 537.789062 L 12.558594 537.789062 Z M 12.558594 18.203125 " fill-opacity="1" fill-rule="nonzero"/></g></g><g clip-path="url(#30ab3d688a)"><g clip-path="url(#13ab3de7c4)"><path fill="#fbe500" d="M 272.351562 277.996094 L 791.9375 277.996094 L 791.9375 797.582031 L 272.351562 797.582031 Z M 272.351562 277.996094 " fill-opacity="1" fill-rule="nonzero"/></g></g><g clip-path="url(#8553588523)"><g clip-path="url(#5f92bd6c18)"><path stroke-linecap="butt" transform="matrix(0.75, 0, 0, 0.75, 272.351913, 277.99653)" fill="none" stroke-linejoin="miter" d="M 50.999538 -0.000581686 L 641.765231 -0.000581686 C 669.931901 -0.000581686 692.765237 22.832754 692.765237 50.999424 L 692.765237 641.765117 C 692.765237 669.931787 669.931901 692.765123 641.765231 692.765123 L 50.999538 692.765123 C 22.832869 692.765123 -0.000467331 669.931787 -0.000467331 641.765117 L -0.000467331 50.999424 C -0.000467331 22.832754 22.832869 -0.000581686 50.999538 -0.000581686 Z M 50.999538 -0.000581686 " stroke="#ffffff" stroke-width="42" stroke-opacity="1" stroke-miterlimit="4"/></g></g><g clip-path="url(#1beeca8b8d)"><g clip-path="url(#91fb21fc67)"><g clip-path="url(#8c5abdacd7)"><path fill="#fbe500" d="M 114.898438 247.59375 L 226.585938 260.066406 C 234.082031 260.875 240.636719 254.710938 240.089844 247.363281 L 234.449219 135.125 C 233.996094 124.695312 221.417969 119.683594 213.871094 126.78125 L 178.324219 160.222656 L 90.703125 67.085938 C 86.035156 62.121094 78.324219 61.886719 73.359375 66.554688 L 56.480469 82.4375 C 51.515625 87.105469 51.28125 94.816406 55.953125 99.78125 L 143.570312 192.917969 L 108.023438 226.359375 C 100.28125 233.644531 104.515625 246.503906 114.898438 247.59375 Z M 114.898438 247.59375 " fill-opacity="1" fill-rule="nonzero"/></g></g></g><g fill="#ffffff" fill-opacity="1"><g transform="translate(438.358373, 689.688283)"><g><path d="M 5.796875 0 L 37.890625 -332.140625 L 150.40625 -332.140625 L 182.109375 0 L 119.09375 0 L 114.453125 -53.75 L 74.234375 -53.75 L 70.375 0 Z M 79.265625 -106.71875 L 109.421875 -106.71875 L 94.734375 -275.6875 L 91.640625 -275.6875 Z M 79.265625 -106.71875 "/></g></g></g></svg>